<?xml version="1.0" encoding="UTF-8"?>
<svg width="500px" height="400px" viewBox="0 0 500 400" version="1.1" xmlns="http://www.w3.org/2000/svg" xmlns:xlink="http://www.w3.org/1999/xlink">
    <title>Education Hero</title>
    <defs>
        <linearGradient x1="0%" y1="0%" x2="100%" y2="100%" id="linearGradient-1">
            <stop stop-color="#FFFFFF" stop-opacity="0.2" offset="0%"></stop>
            <stop stop-color="#FFFFFF" stop-opacity="0" offset="100%"></stop>
        </linearGradient>
    </defs>
    <g id="Education-Hero" stroke="none" stroke-width="1" fill="none" fill-rule="evenodd">
        <g id="Students" transform="translate(50.000000, 50.000000)">
            <circle id="Background" fill="url(#linearGradient-1)" cx="200" cy="150" r="150"></circle>
            <g id="Student-1" transform="translate(100.000000, 50.000000)">
                <rect id="Screen" fill="#FFFFFF" x="0" y="0" width="120" height="80" rx="4"></rect>
                <rect id="Base" fill="#EEEEEE" x="50" y="80" width="20" height="20"></rect>
                <rect id="Stand" fill="#DDDDDD" x="40" y="100" width="40" height="5"></rect>
                <circle id="Head" fill="#FFD7B5" cx="60" cy="30" r="15"></circle>
                <rect id="Body" fill="#4361EE" x="45" y="45" width="30" height="35" rx="2"></rect>
            </g>
            <g id="Student-2" transform="translate(250.000000, 70.000000)">
                <rect id="Book" fill="#FF5A00" x="0" y="0" width="60" height="80" rx="2"></rect>
                <rect id="Pages" fill="#FFFFFF" x="5" y="5" width="50" height="70"></rect>
                <rect id="Line-1" fill="#DDDDDD" x="10" y="15" width="40" height="2"></rect>
                <rect id="Line-2" fill="#DDDDDD" x="10" y="25" width="40" height="2"></rect>
                <rect id="Line-3" fill="#DDDDDD" x="10" y="35" width="40" height="2"></rect>
                <rect id="Line-4" fill="#DDDDDD" x="10" y="45" width="40" height="2"></rect>
                <rect id="Line-5" fill="#DDDDDD" x="10" y="55" width="40" height="2"></rect>
                <rect id="Line-6" fill="#DDDDDD" x="10" y="65" width="20" height="2"></rect>
            </g>
            <g id="Student-3" transform="translate(150.000000, 180.000000)">
                <circle id="Clock" fill="#FFFFFF" cx="25" cy="25" r="25"></circle>
                <rect id="Hour" fill="#333333" x="24" y="10" width="2" height="15"></rect>
                <rect id="Minute" fill="#333333" x="24" y="15" width="2" height="20" transform="translate(25.000000, 25.000000) rotate(90.000000) translate(-25.000000, -25.000000) "></rect>
                <circle id="Center" fill="#333333" cx="25" cy="25" r="2"></circle>
            </g>
            <g id="Graduation-Cap" transform="translate(30.000000, 120.000000)">
                <path d="M30,0 L0,15 L30,30 L60,15 L30,0 Z" id="Triangle" fill="#4361EE" fill-rule="nonzero"></path>
                <path d="M45,18 L45,33 C45,38 38,42 30,42 C22,42 15,38 15,33 L15,18" id="Path" stroke="#FF5A00" stroke-width="3" stroke-linecap="round" stroke-linejoin="round"></path>
                <path d="M60,15 L60,30" id="Line" stroke="#FF5A00" stroke-width="3" stroke-linecap="round" stroke-linejoin="round"></path>
            </g>
            <g id="Certificate" transform="translate(280.000000, 180.000000)">
                <rect id="Paper" fill="#FFFFFF" x="0" y="0" width="70" height="50" rx="2"></rect>
                <rect id="Line-1" fill="#DDDDDD" x="10" y="10" width="50" height="2"></rect>
                <rect id="Line-2" fill="#DDDDDD" x="10" y="20" width="50" height="2"></rect>
                <rect id="Line-3" fill="#DDDDDD" x="10" y="30" width="30" height="2"></rect>
                <circle id="Seal" fill="#FF5A00" cx="55" cy="35" r="8"></circle>
            </g>
        </g>
    </g>
</svg>
