<?xml version="1.0" encoding="UTF-8" standalone="no"?>
<svg xmlns="http://www.w3.org/2000/svg" width="100" height="100" viewBox="0 0 100 100" fill="none">
  <path d="M50 5C25.1472 5 5 25.1472 5 50C5 74.8528 25.1472 95 50 95C74.8528 95 95 74.8528 95 50C95 25.1472 74.8528 5 50 5Z" fill="#0284c7"/>
  <path d="M50.394 22.08a1 1 0 00-.788 0l-27 11.5a1 1 0 000 1.84L25.25 38.051a.999.999 0 01.356-.257l24-10.714a1 1 0 11.788 1.838L27.667 39.088l21.94 9.831a1 1 0 00.787 0l27-11.5a1 1 0 000-1.838l-27-13.5zM23.31 39.397L35 50.12v24.102a8.969 8.969 0 00-11.05-10.174 1 1 0 01-.89-.89 11.115 11.115 0 01.25-13.762zM49.3 76.573A9.026 9.026 0 0147 74.935v-23.957l11.818 5.78a3 3 0 002.364 0l25.508-10.361a11.026 11.026 0 01.25 13.762 1 1 0 01-.89.89 8.968 8.968 0 00-35.35 15.524 1 1 0 01-1.4 0zM36 78a1 1 0 001-1v-22.065a8.935 8.935 0 00-12-5.712V77a1 1 0 001 1h10z" fill="white"/>
</svg>
